<svg id="svg" version="1.1" xmlns="http://www.w3.org/2000/svg" xmlns:xlink="http://www.w3.org/1999/xlink" width="400" height="400" viewBox="0, 0, 400,400"><g id="svgg"><path id="path0" d="M236.800 21.120 C 236.800 21.516,236.649 22.011,236.465 22.220 C 236.280 22.429,235.551 24.130,234.843 26.000 C 234.136 27.870,233.275 30.030,232.930 30.800 C 232.585 31.570,231.963 33.177,231.548 34.371 C 229.528 40.188,223.214 49.650,211.245 64.800 C 207.525 69.508,198.116 80.778,197.218 81.600 C 197.098 81.710,195.472 83.510,193.604 85.600 C 189.547 90.139,181.560 98.823,179.600 100.826 C 145.561 135.614,140.037 149.368,152.507 168.286 C 155.728 173.173,161.470 180.745,163.210 182.400 C 163.326 182.510,164.658 184.040,166.169 185.800 C 177.490 198.979,188.649 209.835,190.009 208.994 C 191.142 208.294,187.445 199.987,182.625 192.400 C 180.114 188.448,179.600 187.601,179.600 187.416 C 179.600 187.306,178.997 186.267,178.260 185.108 C 164.635 163.668,162.546 145.793,172.020 131.730 C 177.082 124.218,181.074 120.232,194.752 109.035 C 217.194 90.664,234.196 64.686,237.577 43.600 C 238.369 38.659,238.028 20.400,237.143 20.400 C 236.954 20.400,236.800 20.724,236.800 21.120 M259.800 92.796 C 257.263 93.172,249.400 95.388,246.000 96.686 C 238.633 99.497,236.796 100.311,230.916 103.364 C 195.688 121.659,186.373 149.119,204.430 181.453 C 212.411 195.744,214.904 205.643,212.114 211.956 C 207.934 221.412,222.986 219.334,228.058 209.754 C 234.156 198.237,233.183 185.441,225.006 169.600 C 210.567 141.630,214.718 128.675,244.939 107.376 C 247.106 105.849,249.806 103.924,250.939 103.097 C 252.073 102.271,253.990 100.893,255.200 100.034 C 260.121 96.544,264.177 92.071,262.076 92.450 C 261.924 92.477,260.900 92.633,259.800 92.796 " stroke="none" fill="#f55d32" fill-rule="evenodd"></path><path id="path1" d="M0.000 200.000 L 0.000 400.000 200.000 400.000 L 400.000 400.000 400.000 200.000 L 400.000 0.000 200.000 0.000 L 0.000 0.000 0.000 200.000 M238.550 28.632 C 238.963 40.857,238.209 49.152,236.380 52.495 C 236.171 52.877,236.000 53.468,236.000 53.810 C 236.000 55.537,230.143 68.680,227.910 71.962 C 227.223 72.973,226.332 74.288,225.930 74.884 C 225.529 75.480,225.200 76.155,225.200 76.384 C 225.200 76.613,225.020 76.800,224.800 76.800 C 224.580 76.800,224.400 76.990,224.400 77.222 C 224.400 77.690,221.678 81.820,219.934 84.000 C 219.317 84.770,217.609 86.930,216.137 88.800 C 213.515 92.131,211.067 94.810,206.141 99.739 C 200.526 105.356,197.389 108.176,191.388 112.998 C 185.197 117.973,179.199 123.668,176.853 126.800 C 176.276 127.570,175.692 128.290,175.554 128.400 C 174.068 129.584,169.913 137.484,168.484 141.839 C 165.189 151.882,167.782 165.463,175.503 178.600 C 175.891 179.260,177.187 181.510,178.383 183.600 C 179.578 185.690,181.194 188.390,181.972 189.600 C 182.750 190.810,183.593 192.160,183.844 192.600 C 192.012 206.910,193.413 211.879,188.747 209.991 C 187.250 209.385,175.300 197.644,170.030 191.600 C 168.207 189.510,165.681 186.630,164.415 185.200 C 161.406 181.800,157.997 177.762,157.027 176.448 C 151.966 169.593,150.857 167.822,147.916 161.895 C 141.769 149.505,147.380 133.876,164.392 116.000 C 165.125 115.230,166.437 113.700,167.308 112.600 C 168.179 111.500,171.346 108.068,174.346 104.974 C 180.228 98.907,186.276 92.424,190.600 87.552 C 194.081 83.630,198.231 79.007,198.800 78.418 C 199.585 77.605,205.115 70.993,206.400 69.331 C 206.950 68.620,208.847 66.274,210.615 64.119 C 212.384 61.963,214.271 59.570,214.810 58.800 C 215.348 58.030,216.096 57.040,216.473 56.600 C 216.849 56.160,217.571 55.213,218.078 54.495 C 226.728 42.245,227.411 41.139,230.000 35.200 C 230.911 33.110,231.815 31.040,232.009 30.600 C 232.204 30.160,232.911 28.560,233.581 27.045 C 234.252 25.529,234.800 24.061,234.800 23.782 C 234.800 23.504,235.139 22.584,235.554 21.738 C 235.968 20.892,236.511 19.691,236.759 19.069 C 237.861 16.312,238.194 18.089,238.550 28.632 M263.400 93.189 C 263.400 94.493,256.031 101.574,254.653 101.595 C 254.462 101.598,253.715 102.095,252.994 102.700 C 251.760 103.735,249.434 105.446,247.419 106.800 C 238.157 113.026,225.597 123.908,223.963 127.123 C 223.663 127.715,223.027 128.740,222.552 129.400 C 217.236 136.783,216.709 150.317,221.373 159.666 C 221.718 160.357,222.000 161.086,222.000 161.286 C 222.000 161.817,227.230 172.492,227.842 173.211 C 228.923 174.479,231.574 181.941,232.174 185.400 C 234.971 201.545,228.857 216.414,218.469 218.726 C 211.876 220.193,209.060 217.286,211.403 211.429 C 213.772 205.508,211.415 195.983,204.472 183.413 C 199.931 175.191,197.063 168.492,195.992 163.600 C 195.727 162.390,195.368 161.026,195.195 160.569 C 193.650 156.493,194.615 142.720,196.818 137.400 C 197.001 136.960,197.272 136.150,197.421 135.600 C 198.165 132.861,201.529 126.906,204.767 122.600 C 213.508 110.973,231.689 99.827,251.400 94.012 C 253.820 93.298,256.520 92.468,257.400 92.167 C 258.280 91.866,259.990 91.661,261.200 91.710 L 263.400 91.800 263.400 93.189 M136.101 212.053 C 137.697 214.195,136.285 216.103,126.020 225.667 C 121.277 230.087,121.709 230.777,129.898 231.868 C 135.888 232.666,157.035 232.279,188.600 230.793 C 218.778 229.373,251.400 230.088,255.700 232.264 C 257.716 233.284,255.659 236.000,252.869 236.000 C 252.417 236.000,251.948 236.160,251.827 236.356 C 251.706 236.551,251.021 236.808,250.304 236.926 C 249.587 237.043,248.100 237.343,247.000 237.592 C 234.509 240.416,208.782 243.328,183.400 244.792 C 165.107 245.847,160.516 246.002,147.600 246.000 C 127.922 245.997,119.993 244.968,106.000 240.598 C 90.054 235.618,87.221 233.439,91.100 229.140 C 92.286 227.826,98.729 223.200,99.373 223.200 C 99.453 223.200,100.681 222.494,102.101 221.631 C 105.654 219.472,115.514 214.800,116.516 214.800 C 116.804 214.800,117.211 214.648,117.420 214.462 C 117.629 214.277,119.330 213.624,121.200 213.011 C 129.051 210.438,134.630 210.079,136.101 212.053 M304.200 212.078 C 305.300 212.313,306.380 212.624,306.600 212.769 C 306.820 212.914,307.702 213.272,308.559 213.564 C 314.393 215.550,320.387 221.111,323.196 227.146 C 323.876 228.606,324.605 230.113,324.816 230.495 C 325.027 230.877,325.200 231.541,325.200 231.971 C 325.200 232.401,325.380 232.864,325.600 233.000 C 325.820 233.136,326.000 234.920,326.000 236.970 C 326.000 244.166,323.418 248.136,311.151 259.808 C 305.830 264.871,295.120 273.600,294.230 273.600 C 294.123 273.600,293.353 274.067,292.518 274.638 C 282.958 281.175,276.971 280.255,281.088 272.880 C 282.632 270.115,284.108 268.177,287.526 264.430 C 300.935 249.729,305.763 240.920,305.738 231.200 C 305.717 222.850,302.311 219.178,291.600 215.955 C 288.069 214.893,286.718 214.120,286.884 213.258 C 287.197 211.632,298.503 210.861,304.200 212.078 M125.517 258.224 C 127.213 258.567,129.872 259.281,131.426 259.810 C 144.425 264.234,160.653 265.358,205.619 264.952 C 238.187 264.657,244.750 265.003,249.271 267.254 C 254.030 269.624,248.320 274.310,237.600 276.834 C 236.830 277.015,235.390 277.361,234.400 277.604 C 232.655 278.030,231.865 278.202,227.200 279.168 C 204.842 283.798,159.129 285.240,144.063 281.791 C 135.571 279.847,127.249 275.343,121.810 269.747 C 117.556 265.370,116.637 259.048,120.109 258.045 C 121.921 257.522,122.072 257.527,125.517 258.224 M177.000 299.596 C 200.420 300.285,218.916 301.760,232.949 304.058 C 237.341 304.777,239.251 305.209,243.351 306.411 C 248.195 307.831,247.775 311.816,242.400 315.457 C 237.378 318.859,228.544 321.112,211.800 323.263 C 206.262 323.974,176.547 323.963,170.800 323.247 C 152.954 321.025,145.697 319.293,137.787 315.370 C 129.782 311.400,126.317 306.981,128.624 303.687 C 130.542 300.949,138.026 299.951,161.800 299.266 C 162.900 299.234,169.740 299.383,177.000 299.596 M106.152 317.994 C 107.807 319.607,105.252 322.961,98.445 328.112 C 92.245 332.803,90.439 335.025,91.506 336.646 C 93.346 339.440,115.326 343.381,139.600 345.268 C 148.122 345.931,185.139 345.930,196.800 345.267 C 201.530 344.998,208.550 344.598,212.400 344.378 C 225.940 343.605,242.808 342.068,256.600 340.352 C 264.808 339.330,268.360 338.790,276.200 337.373 C 279.901 336.705,286.064 335.172,289.400 334.090 C 292.435 333.106,296.768 331.059,297.200 330.405 C 297.656 329.714,302.532 326.835,303.667 326.585 C 306.931 325.868,308.636 329.554,306.700 333.143 C 304.143 337.882,292.494 343.262,276.400 347.136 C 268.749 348.977,261.516 350.476,253.000 351.984 C 250.360 352.452,247.300 352.999,246.200 353.200 C 245.100 353.400,242.760 353.763,241.000 354.006 C 239.240 354.249,236.720 354.607,235.400 354.801 C 234.080 354.996,231.380 355.341,229.400 355.568 C 183.713 360.801,146.590 360.572,104.600 354.799 C 96.041 353.622,87.248 352.257,84.000 351.601 C 75.691 349.924,67.436 347.844,66.600 347.216 C 66.380 347.051,65.356 346.674,64.324 346.378 C 62.013 345.715,59.034 343.603,57.987 341.885 C 55.085 337.127,60.430 332.689,79.800 323.776 C 86.735 320.585,94.764 318.010,100.800 317.040 C 102.605 316.751,105.386 317.246,106.152 317.994 M320.659 351.249 C 323.632 353.717,308.953 362.614,297.600 365.225 C 296.830 365.402,295.480 365.744,294.600 365.984 C 289.199 367.459,273.362 369.972,261.800 371.188 C 199.863 377.702,126.298 377.317,129.948 370.497 C 131.510 367.578,147.740 366.166,193.400 364.977 C 217.650 364.346,224.096 364.072,235.200 363.203 C 260.885 361.191,277.384 358.792,290.200 355.207 C 292.400 354.592,294.830 353.960,295.600 353.803 C 296.370 353.646,297.630 353.376,298.400 353.202 C 310.242 350.530,318.880 349.772,320.659 351.249 " stroke="none" fill="#fbfbfb" fill-rule="evenodd"></path><path id="path2" d="M128.000 211.787 C 121.155 213.243,110.839 217.643,99.200 224.068 C 94.926 226.428,90.400 230.478,90.400 231.942 C 90.400 235.124,102.627 239.647,123.200 244.076 C 128.203 245.153,163.012 245.413,176.400 244.473 C 210.490 242.081,220.460 241.147,235.400 238.951 C 248.265 237.060,255.786 235.065,255.509 233.617 C 255.021 231.068,229.876 230.242,193.200 231.572 C 128.770 233.907,122.400 233.702,122.400 229.287 C 122.400 228.038,122.758 227.541,125.460 225.036 C 133.950 217.166,135.600 215.353,135.600 213.888 C 135.600 211.412,133.061 210.710,128.000 211.787 M291.866 212.397 C 286.254 213.102,286.502 213.701,293.200 215.616 C 312.060 221.007,311.256 239.863,291.249 261.363 C 271.540 282.543,280.825 284.316,305.400 264.066 C 320.422 251.687,327.088 241.421,325.112 233.706 C 321.388 219.169,307.716 210.406,291.866 212.397 M120.200 258.859 C 116.425 261.089,120.344 268.829,127.800 273.869 C 136.541 279.778,144.233 281.827,161.400 282.822 C 177.874 283.777,213.819 281.366,227.000 278.422 C 227.880 278.226,229.680 277.856,231.000 277.600 C 234.194 276.981,236.778 276.394,238.000 276.008 C 238.550 275.835,239.810 275.459,240.800 275.173 C 245.768 273.740,250.599 270.758,250.328 269.293 C 249.804 266.455,234.481 264.929,213.241 265.599 C 197.232 266.105,174.897 266.104,167.821 265.598 C 143.002 263.824,140.667 263.482,128.595 259.846 C 124.509 258.616,121.259 258.234,120.200 258.859 M144.400 300.600 C 129.594 301.836,125.784 304.300,130.575 309.540 C 136.613 316.146,152.356 320.811,175.400 322.825 C 181.513 323.360,205.836 323.114,211.600 322.459 C 215.170 322.054,216.778 321.829,223.200 320.832 C 236.785 318.723,247.518 313.050,245.656 308.962 C 244.568 306.575,233.897 304.403,213.583 302.434 C 205.867 301.686,201.338 301.372,184.302 300.403 C 174.976 299.873,151.733 299.988,144.400 300.600 M99.200 318.196 C 88.203 320.171,68.693 328.782,60.936 335.085 C 52.750 341.738,63.994 348.141,90.600 351.979 C 92.360 352.233,94.790 352.603,96.000 352.800 C 105.687 354.380,132.079 357.182,145.200 358.024 C 154.836 358.641,188.722 358.287,200.000 357.450 C 219.338 356.016,237.352 354.012,249.000 352.000 C 250.100 351.810,252.260 351.450,253.800 351.201 C 256.768 350.720,257.063 350.661,265.800 348.801 C 294.234 342.746,308.301 335.919,306.568 329.013 C 305.902 326.360,303.305 326.919,297.926 330.872 C 294.276 333.555,286.784 336.131,278.400 337.587 C 277.410 337.759,275.250 338.170,273.600 338.501 C 270.526 339.117,267.385 339.656,262.800 340.356 C 222.094 346.565,154.983 348.588,123.200 344.564 C 88.356 340.152,84.451 337.498,98.062 327.479 C 107.633 320.433,108.103 316.598,99.200 318.196 M307.000 352.181 C 301.630 353.132,296.008 354.450,288.899 356.423 C 275.415 360.166,246.032 363.643,214.600 365.216 C 210.420 365.425,198.720 365.766,188.600 365.973 C 143.449 366.897,122.773 369.392,134.162 372.543 C 145.739 375.746,193.222 376.078,229.600 373.211 C 232.570 372.977,237.160 372.617,239.800 372.411 C 242.440 372.205,246.490 371.855,248.800 371.632 C 251.110 371.410,254.170 371.124,255.600 370.997 C 257.030 370.870,259.550 370.598,261.200 370.394 C 262.850 370.189,265.820 369.826,267.800 369.587 C 285.658 367.424,298.205 364.875,304.314 362.165 C 324.362 353.275,325.540 348.897,307.000 352.181 " stroke="none" fill="#356fb8" fill-rule="evenodd"></path><path id="path3" d="M126.600 211.385 C 123.598 212.152,117.852 214.079,117.420 214.462 C 117.211 214.648,116.804 214.800,116.516 214.800 C 115.514 214.800,105.654 219.472,102.101 221.631 C 100.681 222.494,99.453 223.200,99.373 223.200 C 98.729 223.200,92.286 227.826,91.100 229.140 C 87.733 232.871,90.209 235.482,100.200 238.738 C 119.371 244.985,125.978 245.997,147.600 246.000 C 160.516 246.002,165.107 245.847,183.400 244.792 C 208.782 243.328,234.509 240.416,247.000 237.592 C 248.100 237.343,249.587 237.043,250.304 236.926 C 251.021 236.808,251.706 236.551,251.827 236.356 C 251.948 236.160,252.417 236.000,252.869 236.000 C 255.659 236.000,257.716 233.284,255.700 232.264 C 251.400 230.088,218.778 229.373,188.600 230.793 C 157.035 232.279,135.888 232.666,129.898 231.868 C 121.709 230.777,121.277 230.087,126.020 225.667 C 136.285 216.103,137.697 214.195,136.101 212.053 C 135.171 210.804,130.232 210.457,126.600 211.385 M134.987 211.989 C 137.046 213.698,135.692 215.552,125.460 225.036 C 122.758 227.541,122.400 228.038,122.400 229.287 C 122.400 233.702,128.770 233.907,193.200 231.572 C 246.205 229.650,269.722 232.134,246.000 237.148 C 233.004 239.895,215.745 241.712,176.400 244.473 C 163.012 245.413,128.203 245.153,123.200 244.076 C 102.627 239.647,90.400 235.124,90.400 231.942 C 90.400 230.478,94.926 226.428,99.200 224.068 C 116.905 214.293,131.733 209.288,134.987 211.989 M294.000 211.636 C 285.148 212.284,284.324 213.766,291.600 215.955 C 302.311 219.178,305.717 222.850,305.738 231.200 C 305.763 240.920,300.935 249.729,287.526 264.430 C 275.267 277.870,278.405 284.288,292.518 274.638 C 293.353 274.067,294.123 273.600,294.230 273.600 C 295.120 273.600,305.830 264.871,311.151 259.808 C 323.418 248.136,326.000 244.166,326.000 236.970 C 326.000 234.920,325.820 233.136,325.600 233.000 C 325.380 232.864,325.200 232.401,325.200 231.971 C 325.200 231.541,325.027 230.877,324.816 230.495 C 324.605 230.113,323.876 228.606,323.196 227.146 C 320.387 221.111,314.393 215.550,308.559 213.564 C 307.702 213.272,306.820 212.914,306.600 212.769 C 305.059 211.751,299.389 211.241,294.000 211.636 M305.701 213.143 C 319.434 218.007,328.839 232.875,324.390 242.687 C 318.697 255.241,285.430 282.173,281.039 277.782 C 279.333 276.076,282.910 270.324,291.249 261.363 C 311.256 239.863,312.060 221.007,293.200 215.616 C 289.282 214.496,288.000 213.984,288.000 213.539 C 288.000 211.927,301.422 211.627,305.701 213.143 M120.109 258.045 C 116.637 259.048,117.556 265.370,121.810 269.747 C 127.249 275.343,135.571 279.847,144.063 281.791 C 159.129 285.240,204.842 283.798,227.200 279.168 C 231.865 278.202,232.655 278.030,234.400 277.604 C 235.390 277.361,236.830 277.015,237.600 276.834 C 248.320 274.310,254.030 269.624,249.271 267.254 C 244.750 265.003,238.187 264.657,205.619 264.952 C 160.653 265.358,144.425 264.234,131.426 259.810 C 126.129 258.007,122.304 257.411,120.109 258.045 M128.595 259.846 C 140.667 263.482,143.002 263.824,167.821 265.598 C 174.897 266.104,197.232 266.105,213.241 265.599 C 234.481 264.929,249.804 266.455,250.328 269.293 C 250.599 270.758,245.768 273.740,240.800 275.173 C 239.810 275.459,238.550 275.835,238.000 276.008 C 236.778 276.394,234.194 276.981,231.000 277.600 C 229.680 277.856,227.880 278.226,227.000 278.422 C 226.120 278.619,222.070 279.228,218.000 279.777 C 184.258 284.323,152.101 284.161,138.800 279.378 C 127.492 275.312,119.753 268.665,119.028 262.396 C 118.538 258.161,120.904 257.531,128.595 259.846 M151.400 299.638 C 136.815 300.184,130.262 301.349,128.624 303.687 C 126.317 306.981,129.782 311.400,137.787 315.370 C 145.697 319.293,152.954 321.025,170.800 323.247 C 176.547 323.963,206.262 323.974,211.800 323.263 C 228.544 321.112,237.378 318.859,242.400 315.457 C 247.775 311.816,248.195 307.831,243.351 306.411 C 236.702 304.462,230.487 303.419,217.200 302.022 C 203.842 300.617,171.221 298.994,161.800 299.266 C 160.700 299.298,156.020 299.465,151.400 299.638 M184.302 300.403 C 201.338 301.372,205.867 301.686,213.583 302.434 C 233.897 304.403,244.568 306.575,245.656 308.962 C 247.518 313.050,236.785 318.723,223.200 320.832 C 221.770 321.054,219.430 321.414,218.000 321.632 C 194.439 325.224,158.331 322.739,141.962 316.400 C 131.126 312.203,125.866 306.330,130.330 303.410 C 134.646 300.587,161.352 299.099,184.302 300.403 M100.800 317.040 C 94.764 318.010,86.735 320.585,79.800 323.776 C 60.430 332.689,55.085 337.127,57.987 341.885 C 59.034 343.603,62.013 345.715,64.324 346.378 C 65.356 346.674,66.380 347.051,66.600 347.216 C 67.436 347.844,75.691 349.924,84.000 351.601 C 87.248 352.257,96.041 353.622,104.600 354.799 C 146.590 360.572,183.713 360.801,229.400 355.568 C 231.380 355.341,234.080 354.996,235.400 354.801 C 236.720 354.607,239.240 354.249,241.000 354.006 C 242.760 353.763,245.100 353.400,246.200 353.200 C 247.300 352.999,250.360 352.452,253.000 351.984 C 261.516 350.476,268.749 348.977,276.400 347.136 C 292.494 343.262,304.143 337.882,306.700 333.143 C 308.636 329.554,306.931 325.868,303.667 326.585 C 302.532 326.835,297.656 329.714,297.200 330.405 C 296.044 332.154,285.238 335.740,276.200 337.373 C 268.360 338.790,264.808 339.330,256.600 340.352 C 242.808 342.068,225.940 343.605,212.400 344.378 C 208.550 344.598,201.530 344.998,196.800 345.267 C 168.199 346.893,134.701 345.654,112.600 342.151 C 88.191 338.282,86.812 336.915,98.445 328.112 C 108.220 320.715,109.291 315.677,100.800 317.040 M105.473 318.664 C 106.461 319.948,103.487 323.485,98.062 327.479 C 86.819 335.754,87.554 338.186,102.206 341.201 C 132.111 347.354,169.304 348.318,225.400 344.394 C 232.007 343.931,252.466 341.867,257.200 341.185 C 264.828 340.086,269.543 339.314,273.600 338.501 C 275.250 338.170,277.410 337.759,278.400 337.587 C 286.784 336.131,294.276 333.555,297.926 330.872 C 303.305 326.919,305.902 326.360,306.568 329.013 C 308.301 335.919,294.234 342.746,265.800 348.801 C 257.063 350.661,256.768 350.720,253.800 351.201 C 252.260 351.450,250.100 351.810,249.000 352.000 C 212.788 358.256,163.615 360.115,128.000 356.575 C 113.355 355.120,102.027 353.783,96.000 352.800 C 94.790 352.603,92.360 352.233,90.600 351.979 C 63.994 348.141,52.750 341.738,60.936 335.085 C 72.171 325.955,102.482 314.780,105.473 318.664 M311.200 350.796 C 308.629 351.082,303.640 352.020,298.400 353.202 C 297.630 353.376,296.370 353.646,295.600 353.803 C 294.830 353.960,292.400 354.592,290.200 355.207 C 277.384 358.792,260.885 361.191,235.200 363.203 C 224.096 364.072,217.650 364.346,193.400 364.977 C 147.740 366.166,131.510 367.578,129.948 370.497 C 126.298 377.317,199.863 377.702,261.800 371.188 C 273.362 369.972,289.199 367.459,294.600 365.984 C 295.480 365.744,296.830 365.402,297.600 365.225 C 299.721 364.737,302.339 363.767,307.508 361.554 C 324.152 354.428,325.963 349.154,311.200 350.796 M319.626 351.614 C 322.165 352.973,316.968 356.554,304.314 362.165 C 298.205 364.875,285.658 367.424,267.800 369.587 C 265.820 369.826,262.850 370.189,261.200 370.394 C 259.550 370.598,257.030 370.870,255.600 370.997 C 254.170 371.124,251.110 371.410,248.800 371.632 C 246.490 371.855,242.440 372.205,239.800 372.411 C 237.160 372.617,232.570 372.977,229.600 373.211 C 193.222 376.078,145.739 375.746,134.162 372.543 C 122.773 369.392,143.449 366.897,188.600 365.973 C 215.153 365.429,230.805 364.545,251.200 362.436 C 268.105 360.688,280.872 358.651,288.899 356.423 C 304.242 352.164,316.941 350.177,319.626 351.614 " stroke="none" fill="#a3c0e4" fill-rule="evenodd"></path><path id="path4" d="M236.759 19.069 C 236.511 19.691,235.968 20.892,235.554 21.738 C 235.139 22.584,234.800 23.504,234.800 23.782 C 234.800 24.061,234.252 25.529,233.581 27.045 C 232.911 28.560,232.204 30.160,232.009 30.600 C 231.815 31.040,230.911 33.110,230.000 35.200 C 227.411 41.139,226.728 42.245,218.078 54.495 C 217.571 55.213,216.849 56.160,216.473 56.600 C 216.096 57.040,215.348 58.030,214.810 58.800 C 214.271 59.570,212.384 61.963,210.615 64.119 C 208.847 66.274,206.950 68.620,206.400 69.331 C 205.115 70.993,199.585 77.605,198.800 78.418 C 198.231 79.007,194.081 83.630,190.600 87.552 C 186.276 92.424,180.228 98.907,174.346 104.974 C 171.346 108.068,168.179 111.500,167.308 112.600 C 166.437 113.700,165.125 115.230,164.392 116.000 C 147.380 133.876,141.769 149.505,147.916 161.895 C 150.857 167.822,151.966 169.593,157.027 176.448 C 157.997 177.762,161.406 181.800,164.415 185.200 C 165.681 186.630,168.207 189.510,170.030 191.600 C 175.300 197.644,187.250 209.385,188.747 209.991 C 193.413 211.879,192.012 206.910,183.844 192.600 C 183.593 192.160,182.750 190.810,181.972 189.600 C 181.194 188.390,179.578 185.690,178.383 183.600 C 177.187 181.510,175.891 179.260,175.503 178.600 C 167.782 165.463,165.189 151.882,168.484 141.839 C 169.913 137.484,174.068 129.584,175.554 128.400 C 175.692 128.290,176.276 127.570,176.853 126.800 C 179.199 123.668,185.197 117.973,191.388 112.998 C 197.389 108.176,200.526 105.356,206.141 99.739 C 211.067 94.810,213.515 92.131,216.137 88.800 C 217.609 86.930,219.317 84.770,219.934 84.000 C 221.678 81.820,224.400 77.690,224.400 77.222 C 224.400 76.990,224.580 76.800,224.800 76.800 C 225.020 76.800,225.200 76.613,225.200 76.384 C 225.200 76.155,225.529 75.480,225.930 74.884 C 226.332 74.288,227.223 72.973,227.910 71.962 C 230.143 68.680,236.000 55.537,236.000 53.810 C 236.000 53.468,236.171 52.877,236.380 52.495 C 238.209 49.152,238.963 40.857,238.550 28.632 C 238.194 18.089,237.861 16.312,236.759 19.069 M237.743 22.859 C 238.149 26.739,238.037 40.734,237.577 43.600 C 234.196 64.686,217.194 90.664,194.752 109.035 C 181.074 120.232,177.082 124.218,172.020 131.730 C 164.002 143.631,164.327 159.537,172.918 175.660 C 175.577 180.651,176.779 182.776,178.260 185.108 C 178.997 186.267,179.600 187.306,179.600 187.416 C 179.600 187.601,180.114 188.448,182.625 192.400 C 187.445 199.987,191.142 208.294,190.009 208.994 C 188.649 209.835,177.490 198.979,166.169 185.800 C 164.658 184.040,163.326 182.510,163.210 182.400 C 161.470 180.745,155.728 173.173,152.507 168.286 C 140.037 149.368,145.561 135.614,179.600 100.826 C 181.560 98.823,189.547 90.139,193.604 85.600 C 195.472 83.510,197.098 81.710,197.218 81.600 C 198.116 80.778,207.525 69.508,211.245 64.800 C 223.214 49.650,229.528 40.188,231.548 34.371 C 231.963 33.177,232.585 31.570,232.930 30.800 C 233.275 30.030,234.136 27.870,234.843 26.000 C 235.551 24.130,236.280 22.429,236.465 22.220 C 236.649 22.011,236.800 21.516,236.800 21.120 C 236.800 19.335,237.512 20.648,237.743 22.859 M257.400 92.167 C 256.520 92.468,253.820 93.298,251.400 94.012 C 231.689 99.827,213.508 110.973,204.767 122.600 C 201.529 126.906,198.165 132.861,197.421 135.600 C 197.272 136.150,197.001 136.960,196.818 137.400 C 194.615 142.720,193.650 156.493,195.195 160.569 C 195.368 161.026,195.727 162.390,195.992 163.600 C 197.063 168.492,199.931 175.191,204.472 183.413 C 211.415 195.983,213.772 205.508,211.403 211.429 C 206.613 223.403,223.448 221.101,229.557 208.947 C 234.337 199.438,233.390 179.723,227.842 173.211 C 227.230 172.492,222.000 161.817,222.000 161.286 C 222.000 161.086,221.718 160.357,221.373 159.666 C 216.709 150.317,217.236 136.783,222.552 129.400 C 223.027 128.740,223.663 127.715,223.963 127.123 C 225.597 123.908,238.157 113.026,247.419 106.800 C 249.434 105.446,251.760 103.735,252.994 102.700 C 253.715 102.095,254.462 101.598,254.653 101.595 C 256.031 101.574,263.400 94.493,263.400 93.189 L 263.400 91.800 261.200 91.710 C 259.990 91.661,258.280 91.866,257.400 92.167 M262.649 92.879 C 262.987 93.426,258.667 97.576,255.200 100.034 C 253.990 100.893,252.073 102.271,250.939 103.097 C 249.806 103.924,247.106 105.849,244.939 107.376 C 214.718 128.675,210.567 141.630,225.006 169.600 C 233.183 185.441,234.156 198.237,228.058 209.754 C 222.986 219.334,207.934 221.412,212.114 211.956 C 214.904 205.643,212.411 195.744,204.430 181.453 C 186.373 149.119,195.688 121.659,230.916 103.364 C 236.796 100.311,238.633 99.497,246.000 96.686 C 249.400 95.388,257.263 93.172,259.800 92.796 C 260.900 92.633,261.924 92.477,262.076 92.450 C 262.228 92.422,262.486 92.616,262.649 92.879 " stroke="none" fill="#fabea9" fill-rule="evenodd"></path></g></svg>