<?xml version="1.0" standalone="yes"?>
<svg xmlns="http://www.w3.org/2000/svg" width="480" height="480">
<path style="fill:#fefefe; stroke:none;" d="M0 0L0 480L480 480L480 0L0 0z"/>
<path style="fill:#fcbea9; stroke:none;" d="M285 21L285 29L286 29L285 21z"/>
<path style="fill:#f65d32; stroke:none;" d="M284 24C272.324 66.6915 234.511 97.828 206.576 130C194.296 144.142 175.34 160.582 175.34 181C175.34 197.69 189.583 212.343 199.845 224C207.531 232.731 217.343 247.825 229 251C223.652 220.997 188.746 199.996 202.627 166C209.769 148.507 226.767 138.232 240 125.91C257.8 109.336 273.042 90.0422 281.413 67C285.697 55.2086 289.722 35.9148 284 24z"/>
<path style="fill:#fcbea9; stroke:none;" d="M283.333 25.6667L283.667 26.3333L283.333 25.6667M282.333 27.6667L282.667 28.3333L282.333 27.6667M281.333 30.6667L281.667 31.3333L281.333 30.6667M280.333 32.6667L280.667 33.3333L280.333 32.6667M285 32L286 33L285 32M279 34L279 37L280 37L279 34M278 37L276 44L277 44L278 37M286 39L287 40L286 39M275 44L274 48L275 48L275 44M273.333 48.6667L273.667 49.3333L273.333 48.6667M272.333 50.6667L272.667 51.3333L272.333 50.6667M285 50L285 55L286 55L285 50M271 52L272 53L271 52M270 53L269 56L270 53M268.333 56.6667L268.667 57.3333L268.333 56.6667M284 56L284 59L285 59L284 56M267 58L268 59L267 58M266 59L265 62L266 59M283 60L283 63L284 63L283 60M264 62L265 63L264 62M263 63L262 66L263 63M282 64L280 72L281 72L282 64M261 66L262 67L261 66M260 67L259 70L260 67M258 70L259 71L258 70M257.333 71.6667L257.667 72.3333L257.333 71.6667M279.333 72.6667L279.667 73.3333L279.333 72.6667M256 73L257 74L256 73M255 74L256 75L255 74M278.333 74.6667L278.667 75.3333L278.333 74.6667M254 75L255 76L254 75M253 76L251 80L253 76M277 76L276 80L277 80L277 76M250 80L251 81L250 80M249 81L247 85L249 81M275 81L273 86L274 86L275 81M246 85L247 86L246 85M245 86L244 89L245 86M272 86L273 87L272 86M271 88L272 89L271 88M243 89L244 90L243 89M270.333 89.6667L270.667 90.3333L270.333 89.6667M242 90L243 91L242 90M241 91L242 92L241 91M269 91L270 92L269 91M240 92L241 93L240 92M268.333 92.6667L268.667 93.3333L268.333 92.6667M239 93L238 96L239 93M267.333 94.6667L267.667 95.3333L267.333 94.6667M237 96L238 97L237 96M265 96L264 100L265 100L267 96L265 96M235 97L235 99L237 97L235 97M234 99L235 100L234 99M233 100L234 101L233 100M263 100L264 101L263 100M232 101L233 102L232 101M262 101L261 104L262 101M231 102L229 106L231 102M260 104L261 105L260 104M259 105L260 106L259 105M228 106L229 107L228 106M258 106L259 107L258 106M227 107L228 108L227 107M257 107L256 110L257 107M226 108L227 109L226 108M225 109L226 110L225 109M224 110L225 111L224 110M255 110L256 111L255 110M300 113L300 114L316 111C297.938 128.689 259.773 143.118 260.455 173C260.64 181.103 263.118 188.529 266 196L267 196C264.711 187.614 261.204 179.939 261.76 171C263.76 138.839 303.803 134.657 317 111L300 113M223 111L224 112L223 111M254 111L255 112L254 111z"/>
<path style="fill:#f65d32; stroke:none;" d="M316 111C274.372 111.864 227.519 150.191 235.615 194C238.336 208.725 247.964 220.097 252.644 234C255.589 242.749 253.699 248.517 254.252 256.981C254.504 260.827 257.561 262.034 261.001 261.512C274.133 259.522 277.982 244.175 278 233C278.039 208.845 253.179 186.256 262.468 162C271.993 137.129 301.546 131.095 316 111z"/>
<path style="fill:#fcbea9; stroke:none;" d="M222 112L216 120L222 112M253 112L254 113L253 112M252 113L253 114L252 113M251 114L242 124C245.923 122.17 251.099 118.69 251 114M296 114L296 115L299 115L296 114M294.667 115.333L295.333 115.667L294.667 115.333M291 116L291 117L294 117L291 116M289.667 117.333L290.333 117.667L289.667 117.333M286.667 118.333L287.333 118.667L286.667 118.333M284.667 119.333L285.333 119.667L284.667 119.333M215 120L216 121L215 120M282.667 120.333L283.333 120.667L282.667 120.333M214 121L215 122L214 121M280.667 121.333L281.333 121.667L280.667 121.333M213 122L214 123L213 122M278.667 122.333L279.333 122.667L278.667 122.333M212 123L213 124L212 123M276.667 123.333L277.333 123.667L276.667 123.333M211 124L212 125L211 124M241 124L240 126L242 126L241 124M274.667 124.333L275.333 124.667L274.667 124.333M210 125L211 126L210 125M272.667 125.333L273.333 125.667L272.667 125.333M209 126L210 127L209 126M239 126L240 127L239 126M267 128L267 129L272 127L267 128M208 127L209 128L208 127M238 127L239 128L238 127M207 128L208 129L207 128M237 128L238 129L237 128M206 129L201 136L206 129M232 133L237 129L232 133M264 131L267 129L264 131M261 133L264 131L261 133M231 133L232 134L231 133M260 133L261 134L260 133M229.667 134.333L230.333 134.667L229.667 134.333M259 134L260 135L259 134M228 135L229 136L228 135M256 137L259 135L256 137M200 136L201 137L200 136M227 136L228 137L227 136M199 137L200 138L199 137M226 137L227 138L226 137M255 137L256 138L255 137M198 138L199 139L198 138M221 142L226 138L221 142M254 138L255 139L254 138M197 139L196 141L198 141L197 139M253 139L254 140L253 139M252 140L253 141L252 140M195 141L194 144L195 141M251 141L252 142L251 141M220 142L221 143L220 142M250 142L251 143L250 142M219 143L220 144L219 143M249 143L250 144L249 143M193 144L194 145L193 144M218 144L219 145L218 144M248 144L249 145L248 144M192 145L193 146L192 145M217 145L218 146L217 145M247 145L245 149L247 145M191 146L190 149L191 146M216 146L217 147L216 146M215 147L216 148L215 147M214 148L215 149L214 148M189 149L190 150L189 149M213 149L212 152L213 149M244 149L243 152L244 149M188 150L189 151L188 150M187 151L186 154L187 151M211 152L212 153L211 152M242 152L241 155L242 152M210 153L211 154L210 153M185 154L186 155L185 154M209 154L210 155L209 154M184.333 155.667L184.667 156.333L184.333 155.667M208.333 155.667L208.667 156.333L208.333 155.667M240.333 155.667L240.667 156.333L240.333 155.667M183 157L182 160L183 157M207 157L206 160L207 157M239.333 157.667L239.667 158.333L239.333 157.667M238.333 159.667L238.667 160.333L238.333 159.667M181.333 160.667L181.667 161.333L181.333 160.667M205 160L203 166L204 166L205 160M180 162L181 163L180 162M237.333 162.667L237.667 163.333L237.333 162.667M179 164L180 165L179 164M236 164L236 167L237 167L236 164M178 166L179 167L178 166M202.333 166.667L202.667 167.333L202.333 166.667M177.333 168.667L177.667 169.333L177.333 168.667M201 168L201 172L202 172L201 168M235 168L235 171L236 171L235 168M176 170L176 173L177 173L176 170M234 171L234 179L235 179L234 171M200 172L200 177L201 177L200 172M175 173L174 183L175 183L175 173M199 179L199 184L200 184L199 179M233 179L233 184L234 184L233 179M175 183L175 189L176 189L175 183M200 186L200 192L201 192L200 186M234 186L234 193L235 193L234 186M176 189L176 192L177 192L176 189M177.333 192.667L177.667 193.333L177.333 192.667M201 193L201 196L202 196L201 193M235 193L235 197L236 197L235 193M178.333 194.667L178.667 195.333L178.333 194.667M179.333 196.667L179.667 197.333L179.333 196.667M202 196L202 199L203 199L202 196M267 197L269 200L267 197M180.333 198.667L180.667 199.333L180.333 198.667M236 198L236 201L237 201L236 198M203 199L203 202L204 202L203 199M181 200L183 203L181 200M237.333 201.667L237.667 202.333L237.333 201.667M269 201L270 202L269 201M204.333 202.667L204.667 203.333L204.333 202.667M183.333 203.667L183.667 204.333L183.333 203.667M270 203L271 204L270 203M205 204L206 208L207 208L205 204M238.333 204.667L238.667 205.333L238.333 204.667M271.333 204.667L271.667 205.333L271.333 204.667M184 205L185 206L184 205M185 206L187 209L185 206M239.333 206.667L239.667 207.333L239.333 206.667M272.333 206.667L272.667 207.333L272.333 206.667M273.333 208.667L273.667 209.333L273.333 208.667M187 209L188 210L187 209M207.333 209.667L207.667 210.333L207.333 209.667M240 209L241 210L240 209M188 210L190 213L188 210M274 210L275 215L276 215L274 210M208.333 211.667L208.667 212.333L208.333 211.667M241.333 211.667L241.667 212.333L241.333 211.667M190 213L191 214L190 213M209 213L210 214L209 213M242.333 213.667L242.667 214.333L242.333 213.667M191 214L192 215L191 214M210.333 214.667L210.667 215.333L210.333 214.667M192 215L193 216L192 215M243 215L244 216L243 215M276 215L276 218L277 218L276 215M193 216L195 219L193 216M211.333 216.667L211.667 217.333L211.333 216.667M244 217L245 218L244 217M212 218L214 221L212 218M245.333 218.667L245.667 219.333L245.333 218.667M277 218L277 222L278 222L277 218M195 219L196 220L195 219M196 220L197 221L196 220M246.333 220.667L246.667 221.333L246.333 220.667M197 221L198 222L197 221M214.333 221.667L214.667 222.333L214.333 221.667M198 222L199 223L198 222M247.333 222.667L247.667 223.333L247.333 222.667M278 222L276 248L277 248C279.082 240.593 281.067 229.309 278 222M199 223L200 224L199 223M215 223L216 224L215 223M200 224L202 227L200 224M248.333 224.667L248.667 225.333L248.333 224.667M216 225L217 226L216 225M217.333 226.667L217.667 227.333L217.333 226.667M249.333 226.667L249.667 227.333L249.333 226.667M202 227L203 228L202 227M203 228L204 229L203 228M218.333 228.667L218.667 229.333L218.333 228.667M250.333 228.667L250.667 229.333L250.333 228.667M204 229L205 230L204 229M205 230L206 231L205 230M219 230L220 231L219 230M251 230L251 233L252 233L251 230M206 231L214 240L206 231M220.333 231.667L220.667 232.333L220.333 231.667M221.333 233.667L221.667 234.333L221.333 233.667M252.333 233.667L252.667 234.333L252.333 233.667M222 235L223 236L222 235M253.333 236.667L253.667 237.333L253.333 236.667M223 237L224 238L223 237M224 239L225 240L224 239M214 240L215 241L214 240M254.333 240.667L254.667 241.333L254.333 240.667M215 241L216 242L215 241M225 241L226 242L225 241M216 242L217 243L216 242M226.333 242.667L226.667 243.333L226.333 242.667M217 243L218 244L217 243M218 244L219 245L218 244M227.333 244.667L227.667 245.333L227.333 244.667M255 244L255 252L256 252L255 244M219 245L220 246L219 245M220 246L221 247L220 246M228.333 246.667L228.667 247.333L228.333 246.667M221 247L225 250L221 247M275.333 248.667L275.667 249.333L275.333 248.667M229 249L226 251L226 252L229 253L229 249M225 250L226 251L225 250M274.333 250.667L274.667 251.333L274.333 250.667M254.333 252.667L254.667 253.333L254.333 252.667M273.333 252.667L273.667 253.333L273.333 252.667M154.667 253.333L155.333 253.667L154.667 253.333z"/>
<path style="fill:#3771b8; stroke:none;" d="M143 259C134.349 257.826 121.861 265.841 115.001 270.789C111.876 273.042 106.44 277.428 110.337 281.362C117.336 288.426 133.691 289.978 143 292.119C180.067 300.642 222.52 292.535 260 289.975C271.619 289.182 283.642 287.459 295 284.88C299.723 283.808 304.424 283.455 307 279C267.799 271.779 225.548 279 186 279L157 279C154.41 279 148.74 279.167 147.667 276C146.025 271.153 159.346 263.604 161.833 260C163.583 257.465 161.426 256.137 163 254C158.35 252.842 143.797 253.132 143 259z"/>
<path style="fill:#fcbea9; stroke:none;" d="M161 253L162 254L161 253M150 254L151 255L150 254z"/>
<path style="fill:#3f5f85; stroke:none;" d="M160 254L161 255L160 254z"/>
<path style="fill:#fcbea9; stroke:none;" d="M253 254L256 262L253 254M272 254L273 255L272 254M348 254L348 255L352 255L348 254z"/>
<path style="fill:#3771b8; stroke:none;" d="M347 258C350.119 258.652 353.101 259.436 356 260.796C377.452 270.859 361.314 285.951 361 301C351.735 305.993 338.602 322.701 336 333C350.175 336.888 369.082 315.978 377.996 306.999C381.921 303.046 386.79 298.804 387 293L390 292L389 289C392.259 286.152 391.276 280.494 388 278C389.823 262.163 358.448 245.612 347 258z"/>
<path style="fill:#fcbea9; stroke:none;" d="M363 254L364 255L363 254M146 255L147 256L146 255z"/>
<path style="fill:#3f5f85; stroke:none;" d="M161.667 255.333L162.333 255.667L161.667 255.333z"/>
<path style="fill:#fcbea9; stroke:none;" d="M163.333 255.667L163.667 256.333L163.333 255.667M344 255L344 257L346 255L344 255z"/>
<path style="fill:#3771b8; stroke:none;" d="M346 255L345 257L346 255z"/>
<path style="fill:#3f5f85; stroke:none;" d="M346 257L349 255L346 257z"/>
<path style="fill:#fcbea9; stroke:none;" d="M367 255L368 256L367 255M270 256L269 258L271 258L270 256M369 256L370 257L369 256M141 257L142 258L141 257M346 257L347 258L346 257M372 257L373 258L372 257M138 258L139 259L138 258z"/>
<path style="fill:#3f5f85; stroke:none;" d="M141.667 258.333L142.333 258.667L141.667 258.333z"/>
<path style="fill:#fcbea9; stroke:none;" d="M268 258L267 260L269 260L268 258M348.667 258.333L349.333 258.667L348.667 258.333M374 258L375 259L374 258M136 259L137 260L136 259z"/>
<path style="fill:#3f5f85; stroke:none;" d="M139 259L140 260L139 259M160 259L161 260L160 259z"/>
<path style="fill:#fcbea9; stroke:none;" d="M352.667 259.333L353.333 259.667L352.667 259.333M375 259L376 260L375 259M134 260L135 261L134 260M161 260L162 261L161 260M265.667 260.333L266.333 260.667L265.667 260.333M355 260L356 261L355 260M377 260L378 261L377 260M131.667 261.333L132.333 261.667L131.667 261.333M160 261L161 262L160 261M256 262L256 263L265 262L256 262M357 261L358 262L357 261M378 261L379 262L378 261M129 262L130 263L129 262z"/>
<path style="fill:#3f5f85; stroke:none;" d="M133 262L134 263L133 262z"/>
<path style="fill:#fcbea9; stroke:none;" d="M159 262L160 263L159 262M359 262L360 263L359 262z"/>
<path style="fill:#3f5f85; stroke:none;" d="M375 262L376 263L375 262z"/>
<path style="fill:#fcbea9; stroke:none;" d="M379 262L380 263L379 262M158 263L159 264L158 263M361 263L362 264L361 263M380 263L381 264L380 263M125.667 264.333L126.333 264.667L125.667 264.333z"/>
<path style="fill:#3f5f85; stroke:none;" d="M155 264L153 265L153 266L155 264z"/>
<path style="fill:#fcbea9; stroke:none;" d="M157 264L158 265L157 264M362 264L363 265L362 264z"/>
<path style="fill:#3f5f85; stroke:none;" d="M364 264L365 265L364 264M379 264L380 265L379 264z"/>
<path style="fill:#fcbea9; stroke:none;" d="M381 264L382 265L381 264M124 265L125 266L124 265M156 265L157 266L156 265M363 265L364 266L363 265M382 265L383 266L382 265M122 266L123 267L122 266M155 266L156 267L155 266z"/>
<path style="fill:#3f5f85; stroke:none;" d="M381 266L382 267L381 266z"/>
<path style="fill:#fcbea9; stroke:none;" d="M383 266L384 267L383 266M120 267L121 268L120 267M384 267L385 268L384 267z"/>
<path style="fill:#3f5f85; stroke:none;" d="M150 268L149 270L150 268z"/>
<path style="fill:#fcbea9; stroke:none;" d="M152 268L153 269L152 268M365 268L366 269L365 268M151 269L152 270L151 269M385 269L386 270L385 269M115 270L116 271L115 270M150 270L151 271L150 270M366 270L367 271L366 270z"/>
<path style="fill:#3f5f85; stroke:none;" d="M384 270L386 272L384 270z"/>
<path style="fill:#fcbea9; stroke:none;" d="M386 270L387 271L386 270z"/>
<path style="fill:#3f5f85; stroke:none;" d="M116 271L117 272L116 271z"/>
<path style="fill:#fcbea9; stroke:none;" d="M149 271L150 272L149 271M112 272L113 273L112 272M148 272L149 273L148 272M387 272L388 273L387 272M111 273L112 274L111 273M367 273L367 282L368 282L367 273M110 274L111 275L110 274M388 274L389 275L388 274M109 275L110 276L109 275z"/>
<path style="fill:#3f5f85; stroke:none;" d="M386 275L387 276L386 275z"/>
<path style="fill:#fcbea9; stroke:none;" d="M108 276L109 277L108 276M147 276L148 277L147 276M246 276L246 277L286 277C275.488 272.589 257.434 276 246 276M148.667 277.333L149.333 277.667L148.667 277.333M216 277L216 278L232 278L216 277M294 277L294 278L301 278L294 277z"/>
<path style="fill:#3f5f85; stroke:none;" d="M388 277L389 278L388 277z"/>
<path style="fill:#fcbea9; stroke:none;" d="M389 277L390 278L389 277M151 278L151 279L155 279L151 278M192 278L192 279L205 279L192 278M304.667 278.333L305.333 278.667L304.667 278.333M307.333 279.667L307.667 280.333L307.333 279.667z"/>
<path style="fill:#3f5f85; stroke:none;" d="M305 280L306 281L305 280z"/>
<path style="fill:#fcbea9; stroke:none;" d="M390 280L391 281L390 280M109 281L110 282L109 281M306 281L307 282L306 281M111 282L112 283L111 282M304 282L305 283L304 282M113 283L114 284L113 283M301 283L302 284L301 283M115 284L116 285L115 284z"/>
<path style="fill:#3f5f85; stroke:none;" d="M120 284L121 285L120 284z"/>
<path style="fill:#fcbea9; stroke:none;" d="M296.667 284.333L297.333 284.667L296.667 284.333M366.333 284.667L366.667 285.333L366.333 284.667M118 285L119 286L118 285z"/>
<path style="fill:#3f5f85; stroke:none;" d="M122.667 285.333L123.333 285.667L122.667 285.333z"/>
<path style="fill:#fcbea9; stroke:none;" d="M292.667 285.333L293.333 285.667L292.667 285.333M121 286L122 287L121 286M286.667 286.333L287.333 286.667L286.667 286.333M124 287L125 288L124 287M280.667 287.333L281.333 287.667L280.667 287.333M127.667 288.333L128.333 288.667L127.667 288.333M272 288L272 289L275 289L272 288M365 288L366 289L365 288M131.667 289.333L132.333 289.667L131.667 289.333M264 289L264 290L268 290L264 289z"/>
<path style="fill:#3f5f85; stroke:none;" d="M389 289L390 290L389 289z"/>
<path style="fill:#fcbea9; stroke:none;" d="M390 289L391 290L390 289M134.667 290.333L135.333 290.667L134.667 290.333z"/>
<path style="fill:#3f5f85; stroke:none;" d="M238.667 290.333L239.333 290.667L238.667 290.333z"/>
<path style="fill:#fcbea9; stroke:none;" d="M254 290L254 291L258 291L254 290M364.333 290.667L364.667 291.333L364.333 290.667z"/>
<path style="fill:#3f5f85; stroke:none;" d="M388.333 290.667L388.667 291.333L388.333 290.667z"/>
<path style="fill:#fcbea9; stroke:none;" d="M138 291L138 292L141 292L138 291M242 291L242 292L248 292L242 291M142 292L142 293L145 293L142 292M228 292L228 293L237 293L228 292M363.333 292.667L363.667 293.333L363.333 292.667M147 293L147 294L150 294L147 293M213 293L213 294L221 294L213 293z"/>
<path style="fill:#3f5f85; stroke:none;" d="M387 293L388 294L387 293z"/>
<path style="fill:#fcbea9; stroke:none;" d="M388 293L389 294L388 293M155 294L155 295L168 295L155 294M184 294L184 295L200 295L184 294M362.333 294.667L362.667 295.333L362.333 294.667M387 295L388 296L387 295M361 296L362 297L361 296z"/>
<path style="fill:#3f5f85; stroke:none;" d="M384 297L385 298L384 297z"/>
<path style="fill:#fcbea9; stroke:none;" d="M386 297L387 298L386 297M360 298L361 299L360 298z"/>
<path style="fill:#3f5f85; stroke:none;" d="M362 298L363 299L362 298z"/>
<path style="fill:#fcbea9; stroke:none;" d="M385 298L386 299L385 298z"/>
<path style="fill:#3f5f85; stroke:none;" d="M382 299L381 301L382 299z"/>
<path style="fill:#fcbea9; stroke:none;" d="M384 299L385 300L384 299M359 300L360 301L359 300z"/>
<path style="fill:#3f5f85; stroke:none;" d="M360 300L361 301L360 300z"/>
<path style="fill:#fcbea9; stroke:none;" d="M358 301L359 302L358 301z"/>
<path style="fill:#3f5f85; stroke:none;" d="M359 302L360 303L359 302z"/>
<path style="fill:#fcbea9; stroke:none;" d="M357 303L358 304L357 303M381 303L382 304L381 303M356 304L357 305L356 304M380 304L381 305L380 304M355 305L356 306L355 305M379 305L380 306L379 305z"/>
<path style="fill:#3f5f85; stroke:none;" d="M376 306L377 307L376 306z"/>
<path style="fill:#fcbea9; stroke:none;" d="M378 306L379 307L378 306M354 307L355 308L354 307z"/>
<path style="fill:#3f5f85; stroke:none;" d="M356 307L357 308L356 307z"/>
<path style="fill:#fcbea9; stroke:none;" d="M377 307L378 308L377 307M353 308L354 309L353 308M146 309L147 310L146 309M352 309L353 310L352 309z"/>
<path style="fill:#3f5f85; stroke:none;" d="M372.667 309.333L373.333 309.667L372.667 309.333z"/>
<path style="fill:#fcbea9; stroke:none;" d="M375 309L376 310L375 309M143 310L142 312L143 310z"/>
<path style="fill:#3771b8; stroke:none;" d="M144 314C142.691 321.141 148.866 328.345 156 329C161.337 338.379 178.535 338.426 188 339.09C216.166 341.064 245.173 339.603 273 334.389C282.144 332.676 296.464 331.223 301 322L300 322L300 324C293.892 314.89 269.908 318 260 318C236.676 318 213.346 320.154 190 317.866C181.328 317.016 172.486 316.245 164 314.12C158.62 312.773 152.671 309.569 147.005 310.102C144.914 310.298 140.381 313.371 144 314z"/>
<path style="fill:#fcbea9; stroke:none;" d="M151 310L152 311L151 310M351 310L352 311L351 310M374 310L375 311L374 310M155 311L156 312L155 311M350 311L351 312L350 311M158 312L159 313L158 312z"/>
<path style="fill:#3f5f85; stroke:none;" d="M369 312L370 313L369 312z"/>
<path style="fill:#fcbea9; stroke:none;" d="M161 313L162 314L161 313z"/>
<path style="fill:#3f5f85; stroke:none;" d="M143.333 314.667L143.667 315.333L143.333 314.667z"/>
<path style="fill:#fcbea9; stroke:none;" d="M165 314L166 315L165 314z"/>
<path style="fill:#3f5f85; stroke:none;" d="M349 314L350 315L349 314z"/>
<path style="fill:#fcbea9; stroke:none;" d="M369 314L370 315L369 314M142 315L142 318L143 318L142 315M170.667 315.333L171.333 315.667L170.667 315.333M368 315L369 316L368 315M177 316L177 317L180 317L177 316z"/>
<path style="fill:#3f5f85; stroke:none;" d="M347 316L349 319L347 316z"/>
<path style="fill:#fcbea9; stroke:none;" d="M367 316L368 317L367 316M187 317L187 318L192 318L187 317M345 317L344 319L345 317M366 317L367 318L366 317M203 318L203 319L221 319L203 318M234 318L234 319L251 319L234 318M280 318L280 319L287 319L280 318z"/>
<path style="fill:#3f5f85; stroke:none;" d="M345 318L346 319L345 318z"/>
<path style="fill:#fcbea9; stroke:none;" d="M365 318L366 319L365 318M143 319L144 320L143 319M291 319L291 320L294 320L291 319z"/>
<path style="fill:#3f5f85; stroke:none;" d="M346 319L347 320L346 319z"/>
<path style="fill:#fcbea9; stroke:none;" d="M364 319L365 320L364 319M297.667 320.333L298.333 320.667L297.667 320.333M342 320L343 321L342 320z"/>
<path style="fill:#3f5f85; stroke:none;" d="M148 321L149 322L148 321z"/>
<path style="fill:#fcbea9; stroke:none;" d="M299 321L300 322L299 321M361 321L362 322L361 321M145 322L146 323L145 322z"/>
<path style="fill:#3f5f85; stroke:none;" d="M299.333 322.667L299.667 323.333L299.333 322.667M357 322L358 323L357 322z"/>
<path style="fill:#fcbea9; stroke:none;" d="M360 322L361 323L360 322M146 323L147 324L146 323M340 323L341 324L340 323M359 323L360 324L359 323M147 324L148 325L147 324z"/>
<path style="fill:#3f5f85; stroke:none;" d="M297 324L297 326L299 324L297 324z"/>
<path style="fill:#fcbea9; stroke:none;" d="M300 324L301 325L300 324M339 324L340 325L339 324M357 324L358 325L357 324M148 325L149 326L148 325M299 325L300 326L299 325M356 325L357 326L356 325M149 326L150 327L149 326M298 326L299 327L298 326M338 326L339 327L338 326M296 327L297 328L296 327M337 327L338 328L337 327M353 327L354 328L353 327M152 328L153 329L152 328z"/>
<path style="fill:#3f5f85; stroke:none;" d="M154 328L155 329L154 328z"/>
<path style="fill:#fcbea9; stroke:none;" d="M294 328L295 329L294 328M153 329L154 330L153 329z"/>
<path style="fill:#3f5f85; stroke:none;" d="M155 329L156 330L155 329z"/>
<path style="fill:#fcbea9; stroke:none;" d="M292 329L293 330L292 329M336.333 329.667L336.667 330.333L336.333 329.667M350 329L351 330L350 329M155 330L156 331L155 330M289 330L290 331L289 330z"/>
<path style="fill:#3f5f85; stroke:none;" d="M346 330L347 331L346 330z"/>
<path style="fill:#fcbea9; stroke:none;" d="M348 330L349 331L348 330z"/>
<path style="fill:#3f5f85; stroke:none;" d="M279 331L280 332L279 331z"/>
<path style="fill:#fcbea9; stroke:none;" d="M285.667 331.333L286.333 331.667L285.667 331.333M347 331L348 332L347 331M158 332L159 333L158 332M282 332L283 333L282 332M345 332L346 333L345 332M160 333L161 334L160 333M277.667 333.333L278.333 333.667L277.667 333.333M336 333L337 334L336 333M342.667 333.333L343.333 333.667L342.667 333.333M162.667 334.333L163.333 334.667L162.667 334.333M272.667 334.333L273.333 334.667L272.667 334.333M337 334L337 335L341 335L337 334M165 335L166 336L165 335M266 335L266 336L269 336L266 335M168 336L169 337L168 336M258 336L258 337L263 337L258 336M171.667 337.333L172.333 337.667L171.667 337.333M250 337L250 338L254 338L250 337M176 338L176 339L180 339L176 338M240 338L240 339L246 339L240 338M184 339L184 340L192 340L184 339M224 339L224 340L232 340L224 339M188 359L188 360L208 360L188 359M170 360L170 361L173 361L170 360z"/>
<path style="fill:#3771b8; stroke:none;" d="M295 370C285.775 365.158 275.12 364.937 265 363.576C239.132 360.096 213.079 360 187 360C178.44 360 169.357 359.916 161.001 362.044C156.65 363.152 152.539 366.084 155.747 370.827C161.236 378.944 175.029 382.136 184 383.997C209.29 389.243 237.466 390.269 263 386.08C273.53 384.353 293.15 383.104 295 370z"/>
<path style="fill:#fcbea9; stroke:none;" d="M226 360L226 361L233 361L226 360M162.667 361.333L163.333 361.667L162.667 361.333M243 361L243 362L248 362L243 361M157.667 362.333L158.333 362.667L157.667 362.333M256 362L256 363L260 363L256 362M156 363L157 364L156 363M264 363L264 364L269 364L264 363M154 364L155 365L154 364z"/>
<path style="fill:#3f5f85; stroke:none;" d="M157 364L156 366L157 364z"/>
<path style="fill:#fcbea9; stroke:none;" d="M273 364L273 365L277 365L273 364M280 365L280 366L283 366L280 365M285.667 366.333L286.333 366.667L285.667 366.333M289.667 367.333L290.333 367.667L289.667 367.333M292.667 368.333L293.333 368.667L292.667 368.333M154 369L155 370L154 369M294 369L295 370L294 369z"/>
<path style="fill:#3f5f85; stroke:none;" d="M157 370L158 371L157 370M293 370L294 371L293 370z"/>
<path style="fill:#fcbea9; stroke:none;" d="M295 370L295 373L296 373L295 370z"/>
<path style="fill:#3f5f85; stroke:none;" d="M294 371L295 372L294 371z"/>
<path style="fill:#fcbea9; stroke:none;" d="M158 373L159 374L158 373z"/>
<path style="fill:#3f5f85; stroke:none;" d="M293 373L294 374L293 373z"/>
<path style="fill:#fcbea9; stroke:none;" d="M159 374L160 375L159 374M294 374L295 375L294 374M160 375L161 376L160 375z"/>
<path style="fill:#3f5f85; stroke:none;" d="M163 375L164 376L163 375z"/>
<path style="fill:#fcbea9; stroke:none;" d="M162 376L163 377L162 376M164 377L165 378L164 377M291 377L292 378L291 377M166 378L167 379L166 378M290 378L291 379L290 378M168 379L169 380L168 379M288 379L289 380L288 379M122 380L122 381L125 381L122 380M170.667 380.333L171.333 380.667L170.667 380.333M286 380L287 381L286 380M116 381L116 382L119 382L116 381z"/>
<path style="fill:#3771b8; stroke:none;" d="M70 405C70.7954 412.575 77.3958 417.58 85 416L88 417L96 419C98.2001 422.031 103.41 421.798 107 422.407C116.647 424.045 126.317 425.008 136 426.259C178.689 431.777 221.239 431.407 264 427.134C275.7 425.965 287.381 424.7 299 422.759C302.622 422.154 308.846 422.1 311 419C316.809 420.133 322.36 418.283 328 416.873C341.627 413.467 366.997 410.19 368 393C361.827 392.494 358.206 396.511 353 399.179C347.473 402.012 341.027 403.244 335 404.576C310.171 410.06 284.294 412.178 259 413.91C227.76 416.05 195.243 417.803 164 414.83C152.61 413.746 141.299 412.313 130 410.414C124.179 409.435 117.816 406.756 112 408C105.3 393.917 128.531 394.308 126.118 383.314C125.064 378.514 113.774 382.482 111 383.347C95.909 388.056 81.7624 394.579 70 405z"/>
<path style="fill:#fcbea9; stroke:none;" d="M126 381L127 382L126 381M173.667 381.333L174.333 381.667L173.667 381.333M283.667 381.333L284.333 381.667L283.667 381.333M112.667 382.333L113.333 382.667L112.667 382.333M127.333 382.667L127.667 383.333L127.333 382.667M176.667 382.333L177.333 382.667L176.667 382.333M280.667 382.333L281.333 382.667L280.667 382.333M109.667 383.333L110.333 383.667L109.667 383.333M180.667 383.333L181.333 383.667L180.667 383.333M276.667 383.333L277.333 383.667L276.667 383.333M106.667 384.333L107.333 384.667L106.667 384.333M184 384L184 385L187 385L184 384M272 384L272 385L275 385L272 384M104 385L105 386L104 385M126 385L127 386L126 385M189 385L189 386L192 386L189 385M266 385L266 386L270 386L266 385M101 386L102 387L101 386M125 386L126 387L125 386M196 386L196 387L200 387L196 386M260 386L260 387L263 387L260 386M99 387L100 388L99 387M204 387L204 388L208 388L204 387M250 387L250 388L255 388L250 387M96 388L97 389L96 388M220 388L220 389L240 389L220 388M94 389L95 390L94 389M122 389L123 390L122 389M92 390L93 391L92 390z"/>
<path style="fill:#3f5f85; stroke:none;" d="M95 390L96 391L95 390z"/>
<path style="fill:#fcbea9; stroke:none;" d="M121 390L122 391L121 390M90 391L91 392L90 391M120 391L121 392L120 391M363.667 392.333L364.333 392.667L363.667 392.333M366 392L367 393L366 392M86 393L87 394L86 393M117 393L118 394L117 393M361 393L362 394L361 393M84 394L85 395L84 394M116 394L117 395L116 394M360 394L361 395L360 394z"/>
<path style="fill:#3f5f85; stroke:none;" d="M361 396L364 395L361 396z"/>
<path style="fill:#fcbea9; stroke:none;" d="M368 394L368 399L369 399L368 394M82 395L83 396L82 395M115 395L116 396L115 395M358 395L359 396L358 395M80 396L81 397L80 396z"/>
<path style="fill:#3f5f85; stroke:none;" d="M83 396L84 397L83 396z"/>
<path style="fill:#fcbea9; stroke:none;" d="M113 396L114 397L113 396M357 396L358 397L357 396z"/>
<path style="fill:#3f5f85; stroke:none;" d="M367 396L368 397L367 396z"/>
<path style="fill:#fcbea9; stroke:none;" d="M78 397L79 398L78 397M112 397L113 398L112 397M356 397L357 398L356 397z"/>
<path style="fill:#3f5f85; stroke:none;" d="M358 397L359 398L358 397z"/>
<path style="fill:#fcbea9; stroke:none;" d="M76.6667 398.333L77.3333 398.667L76.6667 398.333z"/>
<path style="fill:#3f5f85; stroke:none;" d="M79 398L78 400L79 398z"/>
<path style="fill:#fcbea9; stroke:none;" d="M111 398L112 399L111 398M354 398L355 399L354 398M75 399L76 400L75 399M110 399L111 400L110 399M352 399L353 400L352 399M74 400L75 401L74 400z"/>
<path style="fill:#3f5f85; stroke:none;" d="M76 400L77 401L76 400z"/>
<path style="fill:#fcbea9; stroke:none;" d="M109 400L110 401L109 400M349.667 400.333L350.333 400.667L349.667 400.333z"/>
<path style="fill:#3f5f85; stroke:none;" d="M364.667 400.333L365.333 400.667L364.667 400.333z"/>
<path style="fill:#fcbea9; stroke:none;" d="M367 400L368 401L367 400M72 401L73 402L72 401M346.667 401.333L347.333 401.667L346.667 401.333M366 401L367 402L366 401z"/>
<path style="fill:#3f5f85; stroke:none;" d="M74 402L75 403L74 402z"/>
<path style="fill:#fcbea9; stroke:none;" d="M342.667 402.333L343.333 402.667L342.667 402.333z"/>
<path style="fill:#3f5f85; stroke:none;" d="M363 402L364 403L363 402z"/>
<path style="fill:#fcbea9; stroke:none;" d="M365 402L366 403L365 402z"/>
<path style="fill:#3f5f85; stroke:none;" d="M72 403L73 404L72 403z"/>
<path style="fill:#fcbea9; stroke:none;" d="M338.667 403.333L339.333 403.667L338.667 403.333M364 403L365 404L364 403M70 404L71 405L70 404z"/>
<path style="fill:#3f5f85; stroke:none;" d="M71 404L72 405L71 404z"/>
<path style="fill:#fcbea9; stroke:none;" d="M109 404L110 405L109 404M334.667 404.333L335.333 404.667L334.667 404.333M362 404L363 405L362 404M69 405L69 410L70 410L69 405M110.667 405.333L111.333 405.667L110.667 405.333M329.667 405.333L330.333 405.667L329.667 405.333z"/>
<path style="fill:#3f5f85; stroke:none;" d="M357 405L358 406L357 405z"/>
<path style="fill:#fcbea9; stroke:none;" d="M361 405L362 406L361 405M112.667 406.333L113.333 406.667L112.667 406.333M323 406L323 407L326 407L323 406M359 406L360 407L359 406z"/>
<path style="fill:#3f5f85; stroke:none;" d="M70 407L71 408L70 407M110 407L111 408L110 407M112 407L113 408L112 407z"/>
<path style="fill:#fcbea9; stroke:none;" d="M116 407L117 408L116 407M317 407L317 408L320 408L317 407M357 407L358 408L357 407M120.667 408.333L121.333 408.667L120.667 408.333M309 408L309 409L313 409L309 408M355 408L356 409L355 408M124 409L124 410L127 410L124 409M301 409L301 410L305 410L301 409M352.667 409.333L353.333 409.667L352.667 409.333M70 410L71 411L70 410M130 410L130 411L133 411L130 410M292 410L292 411L297 411L292 410M350 410L351 411L350 410M71 411L72 412L71 411M136 411L136 412L140 412L136 411M281 411L281 412L287 412L281 411M347 411L348 412L347 411M72 412L73 413L72 412z"/>
<path style="fill:#3f5f85; stroke:none;" d="M74.6667 412.333L75.3333 412.667L74.6667 412.333z"/>
<path style="fill:#fcbea9; stroke:none;" d="M143 412L143 413L147 413L143 412M268 412L268 413L276 413L268 412M344.667 412.333L345.333 412.667L344.667 412.333M73 413L74 414L73 413M150 413L150 414L155 414L150 413M253 413L253 414L263 414L253 413M340.667 413.333L341.333 413.667L340.667 413.333M75 414L76 415L75 414M161 414L161 415L168 415L161 414M235 414L235 415L245 415L235 414M337.667 414.333L338.333 414.667L337.667 414.333M77 415L78 416L77 415M181 415L181 416L220 416C209.726 411.689 192.172 415 181 415M333.667 415.333L334.333 415.667L333.667 415.333M80 416L81 417L80 416z"/>
<path style="fill:#3f5f85; stroke:none;" d="M84 416L85 417L84 416z"/>
<path style="fill:#fcbea9; stroke:none;" d="M329.667 416.333L330.333 416.667L329.667 416.333M83.6667 417.333L84.3333 417.667L83.6667 417.333z"/>
<path style="fill:#3f5f85; stroke:none;" d="M87 417L88 418L87 417z"/>
<path style="fill:#fcbea9; stroke:none;" d="M325 417L326 418L325 417M86.6667 418.333L87.3333 418.667L86.6667 418.333z"/>
<path style="fill:#3f5f85; stroke:none;" d="M93 418L94 419L93 418z"/>
<path style="fill:#fcbea9; stroke:none;" d="M321 418L322 419L321 418M90.6667 419.333L91.3333 419.667L90.6667 419.333z"/>
<path style="fill:#3f5f85; stroke:none;" d="M95 419L96 420L95 419M311.667 419.333L312.333 419.667L311.667 419.333z"/>
<path style="fill:#fcbea9; stroke:none;" d="M316.667 419.333L317.333 419.667L316.667 419.333M95 420L96 421L95 420z"/>
<path style="fill:#3f5f85; stroke:none;" d="M307 420L308 421L307 420z"/>
<path style="fill:#fcbea9; stroke:none;" d="M311.667 420.333L312.333 420.667L311.667 420.333M100.667 421.333L101.333 421.667L100.667 421.333M306 421L307 422L306 421M371 421L371 422L374 422L371 421z"/>
<path style="fill:#3771b8; stroke:none;" d="M159 446L158 446L158 444L157 444C159.754 448.37 165.888 448.533 170.715 448.836C181.751 449.529 192.915 450.946 204 450.999C245.016 451.197 286.276 448.028 327 443.155C337.393 441.911 361.758 441.446 368 432C374.668 432.387 382.082 427.97 385 422C369.344 416.277 346.777 428.404 331 430.778C290.496 436.872 249.975 438.905 209 439C196.706 439.028 183.137 439.616 171 441.611C166.928 442.28 160.038 441.154 159 446z"/>
<path style="fill:#fcbea9; stroke:none;" d="M384 421L385 422L384 421M105 422L105 423L108 423L105 422M300.667 422.333L301.333 422.667L300.667 422.333M365.667 422.333L366.333 422.667L365.667 422.333M111 423L111 424L114 424L111 423M294.667 423.333L295.333 423.667L294.667 423.333M360.667 423.333L361.333 423.667L360.667 423.333M385 423L386 424L385 423M118 424L118 425L121 425L118 424M287 424L287 425L290 425L287 424M356.667 424.333L357.333 424.667L356.667 424.333M384 424L385 425L384 424M125 425L125 426L129 426L125 425M279 425L279 426L283 426L279 425M352.667 425.333L353.333 425.667L352.667 425.333M383 425L384 426L383 425M133 426L133 427L138 427L133 426M271 426L271 427L275 427L271 426M348.667 426.333L349.333 426.667L348.667 426.333M382 426L383 427L382 426M141 427L141 428L146 428L141 427M261 427L261 428L267 428L261 427M344.667 427.333L345.333 427.667L344.667 427.333M380 427L381 428L380 427M150 428L150 429L156 429L150 428M250 428L250 429L256 429L250 428M340 428L340 429L343 429L340 428z"/>
<path style="fill:#3f5f85; stroke:none;" d="M375.667 428.333L376.333 428.667L375.667 428.333z"/>
<path style="fill:#fcbea9; stroke:none;" d="M379 428L380 429L379 428M161 429L161 430L168 430L161 429M235 429L235 430L243 430L235 429M336.667 429.333L337.333 429.667L336.667 429.333z"/>
<path style="fill:#3f5f85; stroke:none;" d="M343 429L344 430L343 429M372.667 429.333L373.333 429.667L372.667 429.333z"/>
<path style="fill:#fcbea9; stroke:none;" d="M377 429L378 430L377 429M175 430L175 431L192 431L175 430M208 430L208 431L225 431L208 430M330 430L330 431L333 431L330 430M375 430L376 431L375 430M324.667 431.333L325.333 431.667L324.667 431.333M373 431L374 432L373 431M317 432L317 433L320 433L317 432z"/>
<path style="fill:#3f5f85; stroke:none;" d="M368 432L369 433L368 432z"/>
<path style="fill:#fcbea9; stroke:none;" d="M370.667 432.333L371.333 432.667L370.667 432.333M308 433L308 434L312 434L308 433M368.667 433.333L369.333 433.667L368.667 433.333M300 434L300 435L303 435L300 434M366 434L367 435L366 434M289 435L289 436L293 436L289 435M277 436L277 437L280 437L277 436M361 436L362 437L361 436M259 437L259 438L268 438L259 437M358 437L359 438L358 437M227 438L227 439L246 439L227 438M354 438L355 439L354 438M192 439L192 440L203 440L192 439M349 439L349 440L352 440L349 439M177 440L177 441L184 441L177 440z"/>
<path style="fill:#3f5f85; stroke:none;" d="M336 440L337 441L336 440z"/>
<path style="fill:#fcbea9; stroke:none;" d="M344 440L344 441L347 441L344 440M166 441L166 442L172 442L166 441M338 441L338 442L341 442L338 441M161 442L161 443L164 443L161 442M332 442L332 443L335 443L332 442M157.667 443.333L158.333 443.667L157.667 443.333M324 443L324 444L328 444L324 443M156.333 444.667L156.667 445.333L156.333 444.667z"/>
<path style="fill:#3f5f85; stroke:none;" d="M158.333 444.667L158.667 445.333L158.333 444.667z"/>
<path style="fill:#fcbea9; stroke:none;" d="M315 444L315 445L321 445L315 444M306 445L306 446L310 446L306 445M157 446L158 447L157 446M296 446L296 447L301 447L296 446M160.667 447.333L161.333 447.667L160.667 447.333M283 447L283 448L289 448L283 447M164 448L164 449L167 449L164 448z"/>
<path style="fill:#3f5f85; stroke:none;" d="M171 448L172 449L171 448z"/>
<path style="fill:#fcbea9; stroke:none;" d="M269 448L269 449L275 449L269 448M172 449L172 450L176 450L172 449M252 449L252 450L259 450L252 449M184 450L184 451L197 451L184 450M224 450L224 451L235 451L224 450z"/>
</svg>
